<?xml version="1.0" encoding="UTF-8" standalone="no"?>
<svg
   width="456"
   height="456"
   viewBox="0 0 456 456"
   version="1.1"
   xml:space="preserve"
   style="fill-rule:evenodd;clip-rule:evenodd;stroke-linejoin:round;stroke-miterlimit:2;"
   id="svg4"
   sodipodi:docname="appiconfg.svg"
   inkscape:version="1.3.2 (091e20e, 2023-11-25, custom)"
   xmlns:inkscape="http://www.inkscape.org/namespaces/inkscape"
   xmlns:sodipodi="http://sodipodi.sourceforge.net/DTD/sodipodi-0.dtd"
   xmlns="http://www.w3.org/2000/svg"
   xmlns:svg="http://www.w3.org/2000/svg"><defs
   id="defs4">
	

		
		
		
		
	</defs><sodipodi:namedview
   id="namedview4"
   pagecolor="#ffffff"
   bordercolor="#000000"
   borderopacity="0.25"
   inkscape:showpageshadow="2"
   inkscape:pageopacity="0.0"
   inkscape:pagecheckerboard="0"
   inkscape:deskcolor="#d1d1d1"
   inkscape:zoom="0.89144737"
   inkscape:cx="145.83026"
   inkscape:cy="236.13284"
   inkscape:window-width="1920"
   inkscape:window-height="1009"
   inkscape:window-x="1912"
   inkscape:window-y="-8"
   inkscape:window-maximized="1"
   inkscape:current-layer="svg4" />
    
    
    
    
<path
   style="fill:#ffffff;stroke-width:1.88625"
   d="m 184.91754,171.91048 c -7.40541,-1.28265 -12.7303,-4.45721 -15.6785,-9.74625 -1.9353,-3.3877 -2.88219,-7.9694 -2.88219,-13.7319 h 8.90309 c 0.26974,4.59113 1.01292,7.94677 2.16165,10.06126 2.11637,3.79325 5.98695,5.92094 11.67211,6.3925 v -27.43927 c -7.28281,-1.37319 -12.66239,-3.66876 -16.15007,-6.88859 -3.47824,-3.22926 -5.21171,-7.68647 -5.21171,-13.39426 0,-5.09853 1.86928,-9.68966 5.60405,-13.79791 3.7593,-4.085619 8.99364,-6.168039 15.73509,-6.235944 v -6.682982 h 4.77222 v 6.584897 c 6.68486,0.473449 11.80603,2.431376 15.37482,5.898299 3.56689,3.46693 5.43617,8.03543 5.61536,13.7319 h -8.78992 c -0.22447,-2.54455 -0.92238,-4.73826 -2.0711,-6.5849 -2.11638,-3.3877 -5.47013,-5.16643 -10.10653,-5.33431 v 24.5137 c 7.77701,2.18428 13.06794,4.23274 15.84638,6.13408 4.54775,3.15193 6.79805,7.82228 6.79805,13.99032 0,8.92573 -2.90294,15.26164 -8.69939,19.02094 -2.37478,1.54106 -5.83039,2.5653 -9.7802,3.33111 11.58157,0.39423 23.10656,2.26162 34.226,5.61537 10.5347,-10.47812 17.04038,-24.97395 17.04038,-40.97877 0,-31.95307 -25.90953,-57.851279 -57.86259,-57.851279 -31.94176,0 -57.83996,25.898209 -57.83996,57.851279 0,16.49902 6.94517,31.35701 18.03066,41.89171 10.7818,-3.53671 21.99178,-5.65309 33.2923,-6.351 z"
   id="path1-2" /><path
   style="fill:#ffffff;stroke-width:1.88625"
   d="m 180.14533,124.36945 c 2.21634,1.8787 5.21171,3.18587 8.971,3.92717 v -23.65734 c -4.44589,0.17919 -7.59781,1.509 -9.4652,4.01771 -1.8787,2.52191 -2.8256,5.15512 -2.8256,7.91281 0,3.3198 1.12421,5.91906 3.3198,7.79965 z"
   id="path2-9" /><path
   style="fill:#ffffff;stroke-width:1.88625"
   d="m 207.47143,151.84267 c 0,-4.19879 -1.54107,-7.38278 -4.61377,-9.56706 -1.77873,-1.27133 -4.77221,-2.47664 -8.971,-3.61216 v 26.47162 c 5.73986,-0.26973 9.68966,-2.36347 11.89658,-6.29064 1.12609,-2.0164 1.68819,-4.35724 1.68819,-7.00176 z"
   id="path3-2" /><path
   style="fill:#ffffff;stroke-width:1.88625"
   d="m 389.79254,288.28642 c 7.06778,-7.34883 7.72042,-21.02413 6.55095,-39.29058 -8.30705,-0.5621 -20.55258,0.82241 -24.88529,0 -10.51207,-20.92228 -25.62848,-37.25343 -47.14681,-47.15812 0.72055,-13.66399 2.57662,-26.23585 10.48943,-32.74152 -19.22277,-1.31661 -35.46526,11.67211 -45.84152,23.58 -9.29733,-9.66891 -23.08392,-17.35538 -39.27926,-22.76892 l -10.08389,17.94012 c -29.98383,-10.33287 -62.91586,-10.23101 -92.72992,0.31501 L 133.70587,170.4807 c -0.034,-0.0566 -0.0905,-0.10185 -0.13581,-0.14712 -20.56201,6.80936 -39.505615,17.47987 -54.191955,32.83017 -9.576489,-0.72998 -8.474919,-20.14514 3.951693,-17.02717 -20.226254,-13.77528 -31.368331,23.98366 -11.806036,28.81246 -16.308514,23.28575 -17.84958,73.32607 3.938489,91.68305 3.185876,27.5864 8.069376,53.4846 21.474952,70.8381 h 44.028837 c -1.17136,-8.93705 -2.32952,-18.48147 -1.3166,-28.91432 26.73004,6.06618 58.4926,7.84491 90.36644,5.24566 4.92877,8.17123 9.68024,16.47828 15.56534,23.67998 h 43.56859 c -1.59765,-11.5363 -3.3198,-23.63471 -0.19051,-35.46527 10.39889,-2.02394 64.38901,-15.74264 100.83324,-53.72982 z M 329.6457,229.83909 c 5.97564,0 10.83839,4.85144 10.83839,10.82708 0,5.97563 -4.86275,10.82707 -10.83839,10.82707 -5.96432,0 -10.81575,-4.85144 -10.81575,-10.82707 0,-5.97564 4.84954,-10.82708 10.81575,-10.82708 z"
   id="path4-2" /></svg>
